#!OML:ASF F:\VICON\USERDATA\INSTALL\rory3\rory3.ASF
:FULLY-SPECIFIED
:DEGREES
1
root 0.557228 17.9648 -24.1918 -2.68979 -0.20553 -1.04615
lowerback 11.8798 -1.14377 -0.661021
upperback 0.430055 -1.42536 2.88506
thorax -6.12762 -0.639135 3.65752
lowerneck -17.0989 -2.13109 -2.27577
upperneck 21.3457 -2.14906 -0.823925
head 9.59664 -1.28302 -0.190996
rclavicle -2.83765e-014 8.74653e-015
rhumerus -37.1529 -25.733 -72.2263
rradius 22.3456
rwrist 8.84226
rhand -19.1739 21.9198
rfingers 7.12502
rthumb 7.13725 -7.93982
lclavicle -2.83765e-014 8.74653e-015
lhumerus -23.9193 -0.168857 81.0702
lradius 30.1527
lwrist 7.61546
lhand -32.5534 16.3738
lfingers 7.12502
lthumb -5.78307 46.2749
rfemur -23.1668 3.47999 24.0872
rtibia 27.9811
rfoot -3.53303 -3.12914
rtoes 5.77731
lfemur 7.29875 -0.650335 -19.7949
ltibia 42.1171
lfoot 7.97686 -14.0717
ltoes -15.331
2
root 0.534723 17.992 -23.9917 -2.80914 -0.322761 -1.33075
lowerback 11.7785 -1.32508 -0.620563
upperback 0.0156179 -1.63604 3.16514
thorax -6.48992 -0.729854 3.97647
lowerneck -15.3632 -1.90423 -2.59311
upperneck 21.1966 -1.7773 -0.955659
head 9.22337 -1.15025 -0.115931
rclavicle -1.9133e-015 1.59028e-014
rhumerus -37.8893 -24.7871 -71.7296
rradius 22.0396
rwrist 9.15389
rhand -18.7848 22.5925
rfingers 7.12502
rthumb 7.51285 -7.25406
lclavicle -1.9133e-015 1.59028e-014
lhumerus -25.4348 0.518754 81.2396
lradius 30.1574
lwrist 7.80265
lhand -32.6534 17.6846
lfingers 7.12502
lthumb -5.87958 47.583
rfemur -22.2743 3.23408 24.6129
rtibia 27.866
rfoot -3.80618 -2.9235
rtoes 10.4505
lfemur 6.323 -0.365188 -19.2704
ltibia 44.0709
lfoot 11.1137 -14.8378
ltoes -11.4297
3
root 0.511932 18.0221 -23.8037 -3.06037 -0.466525 -1.78674
lowerback 11.9301 -1.26675 -0.11203
upperback 0.0546583 -1.48254 3.22739
thorax -6.55618 -0.669051 3.73245
lowerneck -15.3959 -1.94151 -2.50508
upperneck 21.3333 -1.8361 -1.01261
head 9.27575 -1.17806 -0.158757
rclavicle -1.24986e-014 1.59028e-015
rhumerus -37.7891 -24.803 -71.7534
rradius 21.7883
rwrist 9.36679
rhand -18.5981 22.9265
rfingers 7.12502
rthumb 7.69309 -6.91354
lclavicle -1.24986e-014 1.59028e-015
lhumerus -25.584 0.231333 81.4323
lradius 29.8044
lwrist 8.23119
lhand -32.3727 17.397
lfingers 7.12502
lthumb -5.60858 47.3028
rfemur -21.1714 3.11281 25.3169
rtibia 27.6203
rfoot -4.00193 -2.7148
rtoes 12.8483
lfemur 5.40511 -0.0956937 -18.5279
ltibia 46.1275
lfoot 14.2085 -15.6025
ltoes -6.59382
4
root 0.483621 18.0555 -23.6202 -3.18522 -0.585656 -2.15425
lowerback 12.0372 -1.04254 0.334589
upperback 0.317112 -1.13119 3.16013
thorax -6.36975 -0.515907 3.34309
lowerneck -16.6365 -2.15299 -2.20693
upperneck 21.7619 -2.17015 -0.994991
head 9.65461 -1.30984 -0.262638
rclavicle 7.23079e-015 -3.65764e-014
rhumerus -37.2442 -25.0842 -72.1968
rradius 21.789
rwrist 9.14447
rhand -18.614 22.945
rfingers 7.12502
rthumb 7.67777 -6.89563
lclavicle 7.23079e-015 -3.65764e-014
lhumerus -25.0375 -0.397351 81.6531
lradius 29.5341
lwrist 8.39702
lhand -31.9196 17.6577
lfingers 7.12502
lthumb -5.17106 47.5746
rfemur -20.2274 3.07175 25.929
rtibia 27.35
rfoot -4.26418 -2.64395
rtoes 12.3403
lfemur 4.35699 0.110746 -17.9019
ltibia 48.1305
lfoot 16.6145 -16.3867
ltoes -4.97224
5
root 0.451029 18.0948 -23.4317 -3.18853 -0.81338 -2.77165
lowerback 11.9214 -0.920049 0.787246
upperback 0.388363 -0.899586 3.33838
thorax -6.24629 -0.414782 3.23067
lowerneck -17.0295 -2.2512 -2.18507
upperneck 22.0527 -2.29626 -1.00961
head 9.83127 -1.36968 -0.295682
rclavicle -1.1281e-014 3.26007e-014
rhumerus -36.9247 -24.82 -72.3809
rradius 21.7485
rwrist 9.10226
rhand -18.1132 23.0429
rfingers 7.12502
rthumb 8.16108 -6.77953
lclavicle -1.1281e-014 3.26007e-014
lhumerus -25.1548 -0.636548 81.9093
lradius 29.4767
lwrist 8.5589
lhand -31.8611 19.2461
lfingers 7.12502
lthumb -5.11465 49.1644
rfemur -19.4112 3.19676 26.82
rtibia 27.0766
rfoot -4.51034 -2.70103
rtoes 7.8947
lfemur 3.05101 0.450004 -16.9741
ltibia 50.2018
lfoot 18.3278 -16.9283
ltoes -4.3499
6
root 0.421898 18.1176 -23.2446 -3.26917 -1.13706 -3.29392
lowerback 11.8413 -0.891889 1.07452
upperback 0.233268 -0.805055 3.5735
thorax -6.37183 -0.371793 3.30327
lowerneck -16.2294 -2.22334 -2.40532
upperneck 21.9449 -2.2227 -1.01297
head 9.64652 -1.35429 -0.239483
rclavicle 9.49197e-015 1.43125e-014
rhumerus -36.9817 -24.307 -72.2762
rradius 21.5504
rwrist 9.49811
rhand -17.7084 23.1588
rfingers 7.12502
rthumb 8.55173 -6.64802
lclavicle 9.49197e-015 1.43125e-014
lhumerus -25.8867 -0.364162 82.1272
lradius 29.3932
lwrist 8.60599
lhand -31.9585 21.0316
lfingers 7.12502
lthumb -5.20871 50.9476
rfemur -18.5771 3.38124 27.6147
rtibia 26.9126
rfoot -4.85316 -2.71342
rtoes 9.04279
lfemur 1.83885 0.92925 -16.1567
ltibia 52.2987
lfoot 18.9224 -16.8808
ltoes -4.03337
7
root 0.396474 18.1217 -23.0671 -3.32339 -1.32641 -3.57807
lowerback 11.7764 -0.76863 1.30863
upperback 0.149503 -0.607906 3.57799
thorax -6.43639 -0.28151 3.14198
lowerneck -15.7989 -2.28885 -2.2775
upperneck 21.8481 -2.35487 -1.0461
head 9.53024 -1.40817 -0.282858
rclavicle -9.36773e-015 -1.66979e-014
rhumerus -36.9147 -24.1381 -72.4136
rradius 21.4345
rwrist 9.61035
rhand -17.8227 22.9665
rfingers 7.12502
rthumb 8.44146 -6.84482
lclavicle -9.36773e-015 -1.66979e-014
lhumerus -26.2054 -0.513023 82.2733
lradius 29.2127
lwrist 8.51912
lhand -31.6946 22.0376
lfingers 7.12502
lthumb -4.95388 51.9597
rfemur -17.8135 3.47493 28.1051
rtibia 26.7799
rfoot -5.2434 -2.76226
rtoes 9.63828
lfemur 0.635821 1.32451 -15.6306
ltibia 54.3888
lfoot 18.0739 -16.4782
ltoes -6.65085
8
root 0.369531 18.132 -22.8978 -3.39447 -1.27982 -3.77616
lowerback 11.8678 -0.694729 1.46503
upperback 0.130009 -0.487367 3.52472
thorax -6.51565 -0.227659 2.97871
lowerneck -15.812 -2.32564 -2.17241
upperneck 21.9399 -2.46354 -0.920946
head 9.56522 -1.43597 -0.271965
rclavicle 1.31198e-014 -4.45278e-014
rhumerus -36.5653 -24.1164 -72.7039
rradius 21.2901
rwrist 9.69432
rhand -17.9928 22.7305
rfingers 7.12502
rthumb 8.2773 -7.08733
lclavicle 1.31198e-014 -4.45278e-014
lhumerus -26.3088 -0.614902 82.3226
lradius 28.9846
lwrist 8.33011
lhand -30.9495 24.0355
lfingers 7.12502
lthumb -4.23438 53.9732
rfemur -17.0842 3.44398 28.4676
rtibia 26.6871
rfoot -5.64211 -2.90403
rtoes 9.54894
lfemur -0.573123 1.47343 -15.258
ltibia 56.3472
lfoot 16.3857 -15.7122
ltoes -10.7164
9
root 0.345945 18.1518 -22.7246 -3.51551 -1.38888 -3.88152
lowerback 12.076 -0.676526 1.44415
upperback -0.013948 -0.449191 3.5754
thorax -6.78751 -0.205566 3.04621
lowerneck -15.3999 -2.26592 -2.36103
upperneck 21.9574 -2.37936 -0.774446
head 9.49872 -1.39647 -0.174042
rclavicle -3.80176e-015 5.1684e-014
rhumerus -36.2458 -23.5365 -72.9265
rradius 21.0596
rwrist 9.83461
rhand -18.0906 22.2009
rfingers 7.12502
rthumb 8.18288 -7.62064
lclavicle -3.80176e-015 5.1684e-014
lhumerus -26.9001 -0.404277 82.436
lradius 28.8002
lwrist 8.24779
lhand -30.1126 26.1757
lfingers 7.12502
lthumb -3.42618 56.1279
rfemur -16.2459 3.52643 28.7118
rtibia 26.6091
rfoot -6.14418 -2.9495
rtoes 10.3785
lfemur -1.70536 1.75832 -15.0526
ltibia 58.0855
lfoot 14.6023 -14.3681
ltoes -11.5534
10
root 0.325465 18.176 -22.5512 -3.57814 -1.61409 -3.91252
lowerback 12.1749 -0.578651 1.42712
upperback -0.128654 -0.316069 3.53405
thorax -6.97135 -0.139326 2.99304
lowerneck -15.0795 -2.26591 -2.37569
upperneck 22.0089 -2.4046 -0.697379
head 9.45822 -1.40139 -0.144585
rclavicle -9.69075e-016 -7.95139e-016
rhumerus -36.0709 -23.527 -72.9313
rradius 20.8137
rwrist 10.6641
rhand -17.7378 24.0624
rfingers 7.12502
rthumb 8.52335 -5.74562
lclavicle -9.69075e-016 -7.95139e-016
lhumerus -27.4015 -0.257562 82.503
lradius 28.6105
lwrist 8.07973
lhand -29.1085 26.8475
lfingers 7.12502
lthumb -2.45648 56.8131
rfemur -15.4217 3.64972 28.8707
rtibia 26.4458
rfoot -6.61484 -2.91962
rtoes 10.3098
lfemur -2.90483 2.20701 -14.9492
ltibia 59.6095
lfoot 12.8145 -12.9873
ltoes -11.0373
11
root 0.30077 18.1965 -22.3815 -3.61587 -1.64896 -4.03821
lowerback 12.0969 -0.424526 1.64584
upperback 0.0856561 -0.101661 3.38402
thorax -6.70775 -0.046194 2.66491
lowerneck -15.8173 -2.46696 -2.16065
upperneck 22.19 -2.7333 -0.6376
head 9.65958 -1.52871 -0.21293
rclavicle 1.82385e-014 -2.8625e-014
rhumerus -35.5885 -25.1614 -72.4939
rradius 20.4142
rwrist 13.029
rhand -15.4964 26.6564
rfingers 7.12502
rthumb 10.6859 -3.05183
lclavicle 1.82385e-014 -2.8625e-014
lhumerus -27.0035 -0.42001 82.475
lradius 27.9649
lwrist 7.67777
lhand -28.0118 26.0696
lfingers 7.12502
lthumb -1.39735 56.0448
rfemur -14.6333 3.78453 29.1302
rtibia 26.2235
rfoot -6.97181 -3.08576
rtoes 9.91099
lfemur -4.14441 2.48956 -14.7033
ltibia 61.0076
lfoot 11.1152 -11.8571
ltoes -8.22159
12
root 0.279759 18.212 -22.2074 -3.63854 -1.55351 -4.29362
lowerback 11.8606 -0.420039 1.97191
upperback 0.267224 -0.0705296 3.33664
thorax -6.38314 -0.0428758 2.41724
lowerneck -16.2769 -2.58274 -2.10057
upperneck 22.1961 -2.90848 -0.595218
head 9.74872 -1.5989 -0.237638
rclavicle -6.23687e-015 -3.4191e-014
rhumerus -34.4782 -24.1066 -73.8455
rradius 20.7515
rwrist 10.9068
rhand -15.4927 24.7484
rfingers 7.12502
rthumb 10.6895 -4.95966
lclavicle -6.23687e-015 -3.4191e-014
lhumerus -26.7418 0.19682 82.2857
lradius 27.0146
lwrist 6.78982
lhand -26.802 23.6886
lfingers 7.12502
lthumb -0.228845 53.6683
rfemur -13.844 3.73254 29.5151
rtibia 26.0118
rfoot -7.40915 -3.19169
rtoes 9.9704
lfemur -5.30157 2.5845 -14.3376
ltibia 62.302
lfoot 9.44712 -10.8149
ltoes -5.34567
13
root 0.259086 18.2186 -22.041 -3.65344 -1.63597 -4.55849
lowerback 11.6968 -0.438932 2.12973
upperback 0.277537 -0.0759446 3.42882
thorax -6.28034 -0.0489472 2.42381
lowerneck -16.1254 -2.53321 -2.10809
upperneck 22.1211 -2.81001 -0.721094
head 9.69137 -1.56859 -0.264307
rclavicle -2.68359e-015 3.1408e-014
rhumerus -33.8373 -23.2748 -74.468
rradius 20.9126
rwrist 10.2019
rhand -15.3069 21.5651
rfingers 7.12502
rthumb 10.8688 -8.13364
lclavicle -2.68359e-015 3.1408e-014
lhumerus -27.0912 1.05315 82.2004
lradius 26.4512
lwrist 6.2092
lhand -26.6621 21.7472
lfingers 7.12502
lthumb -0.0937807 51.7269
rfemur -13.1318 4.01019 29.9271
rtibia 25.8627
rfoot -7.74982 -3.38898
rtoes 10.1558
lfemur -6.48453 2.91864 -13.9369
ltibia 63.4791
lfoot 7.72012 -9.72515
ltoes -7.17003
14
root 0.240959 18.2231 -21.8802 -3.73934 -1.74123 -4.68074
lowerback 11.6602 -0.498954 2.07131
upperback 0.193341 -0.154163 3.54781
thorax -6.34688 -0.0836257 2.59726
lowerneck -15.4421 -2.38985 -2.38966
upperneck 21.9891 -2.57427 -0.645864
head 9.52141 -1.47486 -0.150439
rclavicle -1.86609e-014 5.56597e-015
rhumerus -33.5227 -22.8329 -74.5218
rradius 20.7849
rwrist 10.4683
rhand -14.9969 19.6304
rfingers 7.12502
rthumb 11.1677 -10.0524
lclavicle -1.86609e-014 5.56597e-015
lhumerus -27.9131 1.99622 82.1852
lradius 26.3769
lwrist 5.88791
lhand -27.1409 21.3528
lfingers 7.12502
lthumb -0.556189 51.3319
rfemur -12.4306 4.29284 30.1842
rtibia 25.8118
rfoot -8.12266 -3.61461
rtoes 10.6848
lfemur -7.63946 3.19291 -13.7366
ltibia 64.4284
lfoot 6.13747 -8.47695
ltoes -8.61888
